<svg viewBox="0 0 1024 1024" xmlns="http://www.w3.org/2000/svg">
  <path d="M128 384v512c0 35.346 28.654 64 64 64h640c35.346 0 64-28.654 64-64V384H128z m64-192h640c35.346 0 64 28.654 64 64v64H128v-64c0-35.346 28.654-64 64-64z m160-128c17.673 0 32 14.327 32 32v128c0 17.673-14.327 32-32 32s-32-14.327-32-32V96c0-17.673 14.327-32 32-32z m320 0c17.673 0 32 14.327 32 32v128c0 17.673-14.327 32-32 32s-32-14.327-32-32V96c0-17.673 14.327-32 32-32z" fill="currentColor"/>
  <path d="M256 512h128v96H256v-96z m192 0h128v96H448v-96z m192 0h128v96H640v-96z m-384 160h128v96H256v-96z m192 0h128v96H448v-96z m192 0h128v96H640v-96z" fill="currentColor"/>
</svg>